<svg width="21" height="22" viewBox="0 0 21 22" fill="none" xmlns="http://www.w3.org/2000/svg">
<path d="M18.8413 6.82276C18.8547 7.0093 18.8547 7.19588 18.8547 7.38241C18.8547 13.0721 14.5241 19.628 6.60913 19.628C4.17067 19.628 1.90546 18.9217 0 17.6959C0.346459 17.7358 0.679547 17.7492 1.03934 17.7492C3.05136 17.7492 4.90354 17.0696 6.3826 15.9103C4.49047 15.8704 2.90481 14.6311 2.35848 12.9256C2.625 12.9655 2.89148 12.9922 3.17133 12.9922C3.55774 12.9922 3.94419 12.9388 4.30393 12.8456C2.33186 12.4458 0.852756 10.7136 0.852756 8.62162V8.56834C1.4257 8.88814 2.092 9.08801 2.79817 9.11463C1.6389 8.34177 0.879416 7.02263 0.879416 5.53023C0.879416 4.73075 1.09257 3.99789 1.46569 3.35829C3.58436 5.96996 6.76901 7.67551 10.34 7.86209C10.2734 7.54229 10.2334 7.20921 10.2334 6.87608C10.2334 4.50423 12.1522 2.57214 14.5374 2.57214C15.7766 2.57214 16.8959 3.09181 17.682 3.93128C18.6547 3.74474 19.5875 3.38495 20.4136 2.89194C20.0938 3.89133 19.4143 4.7308 18.5215 5.26375C19.3876 5.17052 20.2271 4.93062 20.9999 4.59754C20.4137 5.45029 19.6808 6.20978 18.8413 6.82276Z" fill="#3EA1D1"/>
</svg>
