<svg width="18" height="20" viewBox="0 0 18 20" fill="none" xmlns="http://www.w3.org/2000/svg">
<g clip-path="url(#clip0_71_158)">
<path d="M10.9336 7.88001V10.9288C10.9336 11.0075 10.8774 11.0675 10.8035 11.0675H10.3465C10.3008 11.0675 10.2621 11.0413 10.241 11.0113L8.9297 9.12501V10.9325C8.9297 11.0113 8.87345 11.0713 8.79962 11.0713H8.34259C8.26876 11.0713 8.21251 11.0113 8.21251 10.9325V7.88376C8.21251 7.80501 8.26876 7.74501 8.34259 7.74501H8.7961C8.83477 7.74501 8.88048 7.76751 8.90157 7.80501L10.2129 9.69126V7.88376C10.2129 7.80501 10.2692 7.74501 10.343 7.74501H10.8C10.8738 7.74126 10.9336 7.80501 10.9336 7.87626V7.88001ZM7.63946 7.74126H7.18243C7.1086 7.74126 7.05235 7.80126 7.05235 7.88001V10.9288C7.05235 11.0075 7.1086 11.0675 7.18243 11.0675H7.63946C7.71329 11.0675 7.76954 11.0075 7.76954 10.9288V7.88001C7.76954 7.80876 7.71329 7.74126 7.63946 7.74126ZM6.53556 10.295H5.28399V7.88001C5.28399 7.80126 5.22774 7.74126 5.15391 7.74126H4.69688C4.62305 7.74126 4.5668 7.80126 4.5668 7.88001V10.9288C4.5668 10.9663 4.57735 10.9963 4.60196 11.0225C4.62657 11.045 4.6547 11.06 4.68985 11.06H6.52501C6.59884 11.06 6.65509 11 6.65509 10.9213V10.4338C6.65509 10.3625 6.59884 10.295 6.53204 10.295H6.53556ZM13.3453 7.74126H11.5066C11.4399 7.74126 11.3766 7.80126 11.3766 7.88001V10.9288C11.3766 11 11.4328 11.0675 11.5066 11.0675H13.3418C13.4156 11.0675 13.4719 11.0075 13.4719 10.9288V10.4375C13.4719 10.3588 13.4156 10.2988 13.3418 10.2988H12.0938V9.78876H13.3418C13.4156 9.78876 13.4719 9.72876 13.4719 9.65001V9.15876C13.4719 9.08001 13.4156 9.02001 13.3418 9.02001H12.0938V8.50626H13.3418C13.4156 8.50626 13.4719 8.44626 13.4719 8.36751V7.88001C13.4684 7.80876 13.4121 7.74126 13.3418 7.74126H13.3453ZM18 4.00251V16.2275C17.9965 18.1475 16.5199 19.7038 14.7164 19.7H3.25548C1.45548 19.6963 -0.00350929 18.1175 6.34022e-06 16.1975V3.97251C0.00352197 2.05251 1.4836 0.496257 3.2836 0.500007H14.7445C16.5445 0.503757 18.0035 2.07876 18 4.00251ZM15.525 9.25626C15.525 6.12876 12.5824 3.58251 8.97188 3.58251C5.36134 3.58251 2.41876 6.12876 2.41876 9.25626C2.41876 12.0575 4.74962 14.4088 7.89962 14.855C8.66602 15.0313 8.57813 15.3313 8.40587 16.4338C8.37774 16.61 8.27227 17.1238 8.97188 16.8125C9.67149 16.5013 12.7442 14.4425 14.1223 12.755C15.0715 11.6413 15.525 10.5125 15.525 9.26376V9.25626Z" fill="#3EA1D1"/>
</g>
<defs>
<clipPath id="clip0_71_158">
<rect width="18" height="19.2" fill="white" transform="translate(0 0.5)"/>
</clipPath>
</defs>
</svg>
