<svg width="18" height="23" viewBox="0 0 18 23" fill="none" xmlns="http://www.w3.org/2000/svg">
<g clip-path="url(#clip0_71_156)">
<path d="M9.00386 6.11364C6.4485 6.11364 4.38734 8.33798 4.38734 11.0956C4.38734 13.8533 6.4485 16.0776 9.00386 16.0776C11.5592 16.0776 13.6204 13.8533 13.6204 11.0956C13.6204 8.33798 11.5592 6.11364 9.00386 6.11364ZM9.00386 14.3346C7.35252 14.3346 6.00252 12.882 6.00252 11.0956C6.00252 9.30922 7.3485 7.85669 9.00386 7.85669C10.6592 7.85669 12.0052 9.30922 12.0052 11.0956C12.0052 12.882 10.6552 14.3346 9.00386 14.3346ZM14.886 5.90985C14.886 6.55591 14.4039 7.07188 13.8092 7.07188C13.2106 7.07188 12.7324 6.55157 12.7324 5.90985C12.7324 5.26813 13.2146 4.74782 13.8092 4.74782C14.4039 4.74782 14.886 5.26813 14.886 5.90985ZM17.9436 7.08923C17.8753 5.53263 17.5458 4.1538 16.4891 3.01778C15.4365 1.88177 14.1588 1.52622 12.7164 1.44817C11.2298 1.35712 6.77395 1.35712 5.28734 1.44817C3.84895 1.52188 2.57127 1.87743 1.51457 3.01345C0.457875 4.14946 0.132429 5.52829 0.0601074 7.08489C-0.0242676 8.68919 -0.0242676 13.4977 0.0601074 15.102C0.128411 16.6586 0.457875 18.0375 1.51457 19.1735C2.57127 20.3095 3.84493 20.665 5.28734 20.7431C6.77395 20.8341 11.2298 20.8341 12.7164 20.7431C14.1588 20.6694 15.4365 20.3138 16.4891 19.1735C17.5418 18.0375 17.8713 16.6586 17.9436 15.102C18.028 13.4977 18.028 8.69352 17.9436 7.08923ZM16.0231 16.8234C15.7097 17.6732 15.103 18.328 14.3115 18.6705C13.1262 19.1778 10.3137 19.0607 9.00386 19.0607C7.69404 19.0607 4.87752 19.1735 3.69627 18.6705C2.90877 18.3323 2.30207 17.6776 1.98466 16.8234C1.51457 15.5443 1.62305 12.5091 1.62305 11.0956C1.62305 9.68212 1.51859 6.64262 1.98466 5.36786C2.29805 4.51802 2.90475 3.86329 3.69627 3.52075C4.88154 3.01345 7.69404 3.13052 9.00386 3.13052C10.3137 3.13052 13.1302 3.01778 14.3115 3.52075C15.099 3.85895 15.7056 4.51368 16.0231 5.36786C16.4931 6.64696 16.3847 9.68212 16.3847 11.0956C16.3847 12.5091 16.4931 15.5486 16.0231 16.8234Z" fill="#3EA1D1"/>
</g>
<defs>
<clipPath id="clip0_71_156">
<rect width="18" height="22.2" fill="white"/>
</clipPath>
</defs>
</svg>
